%TF.GenerationSoftware,KiCad,Pcbnew,10.0.3*%
%TF.CreationDate,2026-10-09T10:27:45+02:00*%
%TF.ProjectId,usb-killer-detector,7573622d-6b69-46c6-9c65-722d64657465,rev?*%
%TF.SameCoordinates,Original*%
%TF.FileFunction,Paste,Top*%
%TF.FilePolarity,Positive*%
%FSLAX46Y46*%
G04 Gerber Fmt 4.6, Leading zero omitted, Abs format (unit mm)*
G04 Created by KiCad (PCBNEW 10.0.3) date 2026-10-09 10:27:45*
%MOMM*%
%LPD*%
G01*
G04 APERTURE LIST*
G04 Aperture macros list*
%AMRoundRect*
0 Rectangle with rounded corners*
0 $1 Rounding radius*
0 $2 $3 $4 $5 $6 $7 $8 $9 X,Y pos of 4 corners*
0 Add a 4 corners polygon primitive as box body*
4,1,4,$2,$3,$4,$5,$6,$7,$8,$9,$2,$3,0*
0 Add four circle primitives for the rounded corners*
1,1,$1+$1,$2,$3*
1,1,$1+$1,$4,$5*
1,1,$1+$1,$6,$7*
1,1,$1+$1,$8,$9*
0 Add four rect primitives between the rounded corners*
20,1,$1+$1,$2,$3,$4,$5,0*
20,1,$1+$1,$4,$5,$6,$7,0*
20,1,$1+$1,$6,$7,$8,$9,0*
20,1,$1+$1,$8,$9,$2,$3,0*%
G04 Aperture macros list end*
%ADD10RoundRect,0.250000X-1.450000X0.312500X-1.450000X-0.312500X1.450000X-0.312500X1.450000X0.312500X0*%
%ADD11RoundRect,0.250000X-0.262500X-0.450000X0.262500X-0.450000X0.262500X0.450000X-0.262500X0.450000X0*%
%ADD12RoundRect,0.250000X0.475000X-0.250000X0.475000X0.250000X-0.475000X0.250000X-0.475000X-0.250000X0*%
%ADD13RoundRect,0.150000X-0.825000X-0.150000X0.825000X-0.150000X0.825000X0.150000X-0.825000X0.150000X0*%
%ADD14RoundRect,0.250000X0.650000X-1.000000X0.650000X1.000000X-0.650000X1.000000X-0.650000X-1.000000X0*%
%ADD15RoundRect,0.250000X0.625000X-0.312500X0.625000X0.312500X-0.625000X0.312500X-0.625000X-0.312500X0*%
%ADD16RoundRect,0.225000X0.375000X-0.225000X0.375000X0.225000X-0.375000X0.225000X-0.375000X-0.225000X0*%
%ADD17RoundRect,0.250000X0.450000X-0.262500X0.450000X0.262500X-0.450000X0.262500X-0.450000X-0.262500X0*%
%ADD18RoundRect,0.250000X-0.250000X-0.475000X0.250000X-0.475000X0.250000X0.475000X-0.250000X0.475000X0*%
%ADD19RoundRect,0.150000X0.825000X0.150000X-0.825000X0.150000X-0.825000X-0.150000X0.825000X-0.150000X0*%
%ADD20O,1.200000X2.900000*%
%ADD21RoundRect,0.325000X-0.325000X-1.175000X0.325000X-1.175000X0.325000X1.175000X-0.325000X1.175000X0*%
%ADD22RoundRect,0.150000X-0.587500X-0.150000X0.587500X-0.150000X0.587500X0.150000X-0.587500X0.150000X0*%
%ADD23RoundRect,0.225000X-0.225000X-0.375000X0.225000X-0.375000X0.225000X0.375000X-0.225000X0.375000X0*%
%ADD24RoundRect,0.150000X0.150000X-0.587500X0.150000X0.587500X-0.150000X0.587500X-0.150000X-0.587500X0*%
%ADD25RoundRect,0.175000X0.175000X0.425000X-0.175000X0.425000X-0.175000X-0.425000X0.175000X-0.425000X0*%
%ADD26RoundRect,0.190000X-0.190000X-0.410000X0.190000X-0.410000X0.190000X0.410000X-0.190000X0.410000X0*%
%ADD27RoundRect,0.200000X-0.200000X-0.400000X0.200000X-0.400000X0.200000X0.400000X-0.200000X0.400000X0*%
%ADD28RoundRect,0.175000X-0.175000X-0.425000X0.175000X-0.425000X0.175000X0.425000X-0.175000X0.425000X0*%
%ADD29RoundRect,0.190000X0.190000X0.410000X-0.190000X0.410000X-0.190000X-0.410000X0.190000X-0.410000X0*%
%ADD30RoundRect,0.200000X0.200000X0.400000X-0.200000X0.400000X-0.200000X-0.400000X0.200000X-0.400000X0*%
%ADD31O,1.100000X1.700000*%
%ADD32RoundRect,0.250000X1.000000X0.650000X-1.000000X0.650000X-1.000000X-0.650000X1.000000X-0.650000X0*%
%ADD33R,1.550000X1.300000*%
G04 APERTURE END LIST*
D10*
%TO.C,F1*%
X80500000Y-123362500D03*
X80500000Y-127637500D03*
%TD*%
D11*
%TO.C,R4*%
X69587500Y-71000000D03*
X71412500Y-71000000D03*
%TD*%
D12*
%TO.C,C9*%
X82600000Y-76950000D03*
X82600000Y-75050000D03*
%TD*%
D13*
%TO.C,U3*%
X85525000Y-90055000D03*
X85525000Y-91325000D03*
X85525000Y-92595000D03*
X85525000Y-93865000D03*
X85525000Y-95135000D03*
X85525000Y-96405000D03*
X85525000Y-97675000D03*
X85525000Y-98945000D03*
X90475000Y-98945000D03*
X90475000Y-97675000D03*
X90475000Y-96405000D03*
X90475000Y-95135000D03*
X90475000Y-93865000D03*
X90475000Y-92595000D03*
X90475000Y-91325000D03*
X90475000Y-90055000D03*
%TD*%
D14*
%TO.C,D3*%
X76000000Y-122000000D03*
X76000000Y-118000000D03*
%TD*%
D15*
%TO.C,R8*%
X90500000Y-122462500D03*
X90500000Y-119537500D03*
%TD*%
D11*
%TO.C,R10*%
X87687500Y-115000000D03*
X89512500Y-115000000D03*
%TD*%
%TO.C,R17*%
X78687500Y-83400000D03*
X80512500Y-83400000D03*
%TD*%
D16*
%TO.C,D14*%
X95000000Y-83650000D03*
X95000000Y-80350000D03*
%TD*%
D11*
%TO.C,R13*%
X80287500Y-107500000D03*
X82112500Y-107500000D03*
%TD*%
D17*
%TO.C,R21*%
X78500000Y-91912500D03*
X78500000Y-90087500D03*
%TD*%
D12*
%TO.C,C1*%
X80300000Y-63150000D03*
X80300000Y-61250000D03*
%TD*%
%TO.C,C2*%
X80300000Y-67750000D03*
X80300000Y-65850000D03*
%TD*%
%TO.C,C10*%
X93500000Y-90450000D03*
X93500000Y-88550000D03*
%TD*%
D15*
%TO.C,R12*%
X86000000Y-122462500D03*
X86000000Y-119537500D03*
%TD*%
D11*
%TO.C,R9*%
X92687500Y-113400000D03*
X94512500Y-113400000D03*
%TD*%
D17*
%TO.C,R3*%
X76600000Y-67312500D03*
X76600000Y-65487500D03*
%TD*%
D18*
%TO.C,C7*%
X78650000Y-85800000D03*
X80550000Y-85800000D03*
%TD*%
%TO.C,C6*%
X80250000Y-112300000D03*
X82150000Y-112300000D03*
%TD*%
D16*
%TO.C,D12*%
X95000000Y-73650000D03*
X95000000Y-70350000D03*
%TD*%
D17*
%TO.C,R19*%
X81500000Y-97412500D03*
X81500000Y-95587500D03*
%TD*%
D19*
%TO.C,U1*%
X90475000Y-111810000D03*
X90475000Y-110540000D03*
X90475000Y-109270000D03*
X90475000Y-108000000D03*
X90475000Y-106730000D03*
X90475000Y-105460000D03*
X90475000Y-104190000D03*
X85525000Y-104190000D03*
X85525000Y-105460000D03*
X85525000Y-106730000D03*
X85525000Y-108000000D03*
X85525000Y-109270000D03*
X85525000Y-110540000D03*
X85525000Y-111810000D03*
%TD*%
D20*
%TO.C,J1*%
X82100000Y-135700000D03*
X94900000Y-135700000D03*
D21*
X85000000Y-132000000D03*
X87500000Y-132000000D03*
X89500000Y-132000000D03*
X92000000Y-132000000D03*
%TD*%
D17*
%TO.C,R26*%
X103200000Y-80712500D03*
X103200000Y-78887500D03*
%TD*%
D11*
%TO.C,R6*%
X69587500Y-75800000D03*
X71412500Y-75800000D03*
%TD*%
D17*
%TO.C,R25*%
X98000000Y-76912500D03*
X98000000Y-75087500D03*
%TD*%
D15*
%TO.C,R7*%
X90500000Y-127762500D03*
X90500000Y-124837500D03*
%TD*%
D17*
%TO.C,R20*%
X94000000Y-95412500D03*
X94000000Y-93587500D03*
%TD*%
D22*
%TO.C,D6*%
X80062500Y-103050000D03*
X80062500Y-104950000D03*
X81937500Y-104000000D03*
%TD*%
D23*
%TO.C,D8*%
X71350000Y-89500000D03*
X74650000Y-89500000D03*
%TD*%
D14*
%TO.C,D1*%
X97600000Y-64400000D03*
X97600000Y-60400000D03*
%TD*%
D11*
%TO.C,R14*%
X80287500Y-109900000D03*
X82112500Y-109900000D03*
%TD*%
D17*
%TO.C,R24*%
X96600000Y-122412500D03*
X96600000Y-120587500D03*
%TD*%
D24*
%TO.C,D7*%
X74050000Y-80437500D03*
X75950000Y-80437500D03*
X75000000Y-78562500D03*
%TD*%
D18*
%TO.C,C4*%
X73950000Y-73400000D03*
X75850000Y-73400000D03*
%TD*%
D15*
%TO.C,R11*%
X86000000Y-127762500D03*
X86000000Y-124837500D03*
%TD*%
D17*
%TO.C,R18*%
X81500000Y-92912500D03*
X81500000Y-91087500D03*
%TD*%
D18*
%TO.C,C5*%
X87650000Y-117400000D03*
X89550000Y-117400000D03*
%TD*%
D17*
%TO.C,R22*%
X96600000Y-107412500D03*
X96600000Y-105587500D03*
%TD*%
D16*
%TO.C,D13*%
X95000000Y-78650000D03*
X95000000Y-75350000D03*
%TD*%
D15*
%TO.C,R15*%
X83000000Y-120962500D03*
X83000000Y-118037500D03*
%TD*%
D12*
%TO.C,C11*%
X78500000Y-96450000D03*
X78500000Y-94550000D03*
%TD*%
D17*
%TO.C,R23*%
X96600000Y-114912500D03*
X96600000Y-113087500D03*
%TD*%
D25*
%TO.C,J2*%
X88180000Y-63380000D03*
D26*
X86160000Y-63380000D03*
D27*
X84930000Y-63380000D03*
D28*
X87180000Y-63380000D03*
D29*
X89200000Y-63380000D03*
D30*
X90430000Y-63380000D03*
D31*
X92000000Y-63300000D03*
X92000000Y-59500000D03*
X83360000Y-63300000D03*
X83360000Y-59500000D03*
%TD*%
D17*
%TO.C,R2*%
X89000000Y-68312500D03*
X89000000Y-66487500D03*
%TD*%
D12*
%TO.C,C8*%
X93600000Y-111450000D03*
X93600000Y-109550000D03*
%TD*%
D17*
%TO.C,R1*%
X86600000Y-68312500D03*
X86600000Y-66487500D03*
%TD*%
D11*
%TO.C,R16*%
X78687500Y-81000000D03*
X80512500Y-81000000D03*
%TD*%
D32*
%TO.C,D4*%
X79300000Y-131800000D03*
X75300000Y-131800000D03*
%TD*%
D11*
%TO.C,R5*%
X69587500Y-73400000D03*
X71412500Y-73400000D03*
%TD*%
D13*
%TO.C,U2*%
X85525000Y-75190000D03*
X85525000Y-76460000D03*
X85525000Y-77730000D03*
X85525000Y-79000000D03*
X85525000Y-80270000D03*
X85525000Y-81540000D03*
X85525000Y-82810000D03*
X90475000Y-82810000D03*
X90475000Y-81540000D03*
X90475000Y-80270000D03*
X90475000Y-79000000D03*
X90475000Y-77730000D03*
X90475000Y-76460000D03*
X90475000Y-75190000D03*
%TD*%
D22*
%TO.C,D5*%
X92562500Y-115550000D03*
X92562500Y-117450000D03*
X94437500Y-116500000D03*
%TD*%
D18*
%TO.C,C3*%
X73950000Y-71000000D03*
X75850000Y-71000000D03*
%TD*%
D33*
%TO.C,SW1*%
X68325000Y-93250000D03*
X76275000Y-93250000D03*
X68325000Y-97750000D03*
X76275000Y-97750000D03*
%TD*%
M02*
