%TF.GenerationSoftware,KiCad,Pcbnew,10.0.3*%
%TF.CreationDate,2026-10-09T10:27:45+02:00*%
%TF.ProjectId,usb-killer-detector,7573622d-6b69-46c6-9c65-722d64657465,rev?*%
%TF.SameCoordinates,Original*%
%TF.FileFunction,Legend,Top*%
%TF.FilePolarity,Positive*%
%FSLAX46Y46*%
G04 Gerber Fmt 4.6, Leading zero omitted, Abs format (unit mm)*
G04 Created by KiCad (PCBNEW 10.0.3) date 2026-10-09 10:27:45*
%MOMM*%
%LPD*%
G01*
G04 APERTURE LIST*
G04 Aperture macros list*
%AMRoundRect*
0 Rectangle with rounded corners*
0 $1 Rounding radius*
0 $2 $3 $4 $5 $6 $7 $8 $9 X,Y pos of 4 corners*
0 Add a 4 corners polygon primitive as box body*
4,1,4,$2,$3,$4,$5,$6,$7,$8,$9,$2,$3,0*
0 Add four circle primitives for the rounded corners*
1,1,$1+$1,$2,$3*
1,1,$1+$1,$4,$5*
1,1,$1+$1,$6,$7*
1,1,$1+$1,$8,$9*
0 Add four rect primitives between the rounded corners*
20,1,$1+$1,$2,$3,$4,$5,0*
20,1,$1+$1,$4,$5,$6,$7,0*
20,1,$1+$1,$6,$7,$8,$9,0*
20,1,$1+$1,$8,$9,$2,$3,0*%
G04 Aperture macros list end*
%ADD10C,0.150000*%
%ADD11C,0.180000*%
%ADD12C,0.300000*%
%ADD13C,0.120000*%
%ADD14RoundRect,0.250000X-1.450000X0.312500X-1.450000X-0.312500X1.450000X-0.312500X1.450000X0.312500X0*%
%ADD15RoundRect,0.250000X-0.262500X-0.450000X0.262500X-0.450000X0.262500X0.450000X-0.262500X0.450000X0*%
%ADD16RoundRect,0.250000X0.475000X-0.250000X0.475000X0.250000X-0.475000X0.250000X-0.475000X-0.250000X0*%
%ADD17RoundRect,0.150000X-0.825000X-0.150000X0.825000X-0.150000X0.825000X0.150000X-0.825000X0.150000X0*%
%ADD18RoundRect,0.250000X0.650000X-1.000000X0.650000X1.000000X-0.650000X1.000000X-0.650000X-1.000000X0*%
%ADD19RoundRect,0.250000X0.625000X-0.312500X0.625000X0.312500X-0.625000X0.312500X-0.625000X-0.312500X0*%
%ADD20RoundRect,0.225000X0.375000X-0.225000X0.375000X0.225000X-0.375000X0.225000X-0.375000X-0.225000X0*%
%ADD21R,1.800000X1.800000*%
%ADD22C,1.800000*%
%ADD23RoundRect,0.250000X0.450000X-0.262500X0.450000X0.262500X-0.450000X0.262500X-0.450000X-0.262500X0*%
%ADD24RoundRect,0.250000X-0.250000X-0.475000X0.250000X-0.475000X0.250000X0.475000X-0.250000X0.475000X0*%
%ADD25RoundRect,0.150000X0.825000X0.150000X-0.825000X0.150000X-0.825000X-0.150000X0.825000X-0.150000X0*%
%ADD26RoundRect,0.325000X-0.325000X-1.175000X0.325000X-1.175000X0.325000X1.175000X-0.325000X1.175000X0*%
%ADD27O,1.200000X2.900000*%
%ADD28RoundRect,0.150000X-0.587500X-0.150000X0.587500X-0.150000X0.587500X0.150000X-0.587500X0.150000X0*%
%ADD29RoundRect,0.225000X-0.225000X-0.375000X0.225000X-0.375000X0.225000X0.375000X-0.225000X0.375000X0*%
%ADD30RoundRect,0.150000X0.150000X-0.587500X0.150000X0.587500X-0.150000X0.587500X-0.150000X-0.587500X0*%
%ADD31RoundRect,0.175000X0.175000X0.425000X-0.175000X0.425000X-0.175000X-0.425000X0.175000X-0.425000X0*%
%ADD32RoundRect,0.190000X-0.190000X-0.410000X0.190000X-0.410000X0.190000X0.410000X-0.190000X0.410000X0*%
%ADD33RoundRect,0.200000X-0.200000X-0.400000X0.200000X-0.400000X0.200000X0.400000X-0.200000X0.400000X0*%
%ADD34RoundRect,0.175000X-0.175000X-0.425000X0.175000X-0.425000X0.175000X0.425000X-0.175000X0.425000X0*%
%ADD35RoundRect,0.190000X0.190000X0.410000X-0.190000X0.410000X-0.190000X-0.410000X0.190000X-0.410000X0*%
%ADD36RoundRect,0.200000X0.200000X0.400000X-0.200000X0.400000X-0.200000X-0.400000X0.200000X-0.400000X0*%
%ADD37O,1.100000X1.700000*%
%ADD38RoundRect,0.250000X1.000000X0.650000X-1.000000X0.650000X-1.000000X-0.650000X1.000000X-0.650000X0*%
%ADD39R,1.550000X1.300000*%
G04 APERTURE END LIST*
D10*
X98678572Y-131165700D02*
X98807144Y-131208557D01*
X98807144Y-131208557D02*
X99021429Y-131208557D01*
X99021429Y-131208557D02*
X99107144Y-131165700D01*
X99107144Y-131165700D02*
X99150001Y-131122842D01*
X99150001Y-131122842D02*
X99192858Y-131037128D01*
X99192858Y-131037128D02*
X99192858Y-130951414D01*
X99192858Y-130951414D02*
X99150001Y-130865700D01*
X99150001Y-130865700D02*
X99107144Y-130822842D01*
X99107144Y-130822842D02*
X99021429Y-130779985D01*
X99021429Y-130779985D02*
X98850001Y-130737128D01*
X98850001Y-130737128D02*
X98764286Y-130694271D01*
X98764286Y-130694271D02*
X98721429Y-130651414D01*
X98721429Y-130651414D02*
X98678572Y-130565700D01*
X98678572Y-130565700D02*
X98678572Y-130479985D01*
X98678572Y-130479985D02*
X98721429Y-130394271D01*
X98721429Y-130394271D02*
X98764286Y-130351414D01*
X98764286Y-130351414D02*
X98850001Y-130308557D01*
X98850001Y-130308557D02*
X99064286Y-130308557D01*
X99064286Y-130308557D02*
X99192858Y-130351414D01*
X99578572Y-130737128D02*
X99878572Y-130737128D01*
X100007144Y-131208557D02*
X99578572Y-131208557D01*
X99578572Y-131208557D02*
X99578572Y-130308557D01*
X99578572Y-130308557D02*
X100007144Y-130308557D01*
X100392858Y-131208557D02*
X100392858Y-130308557D01*
X100392858Y-130308557D02*
X100907144Y-131208557D01*
X100907144Y-131208557D02*
X100907144Y-130308557D01*
X101207144Y-130308557D02*
X101721430Y-130308557D01*
X101464287Y-131208557D02*
X101464287Y-130308557D01*
X102021429Y-131208557D02*
X102021429Y-130308557D01*
X102450000Y-131208557D02*
X102450000Y-130308557D01*
X102450000Y-130308557D02*
X102964286Y-131208557D01*
X102964286Y-131208557D02*
X102964286Y-130308557D01*
X103392857Y-130737128D02*
X103692857Y-130737128D01*
X103821429Y-131208557D02*
X103392857Y-131208557D01*
X103392857Y-131208557D02*
X103392857Y-130308557D01*
X103392857Y-130308557D02*
X103821429Y-130308557D01*
X104635715Y-131208557D02*
X104207143Y-131208557D01*
X104207143Y-131208557D02*
X104207143Y-130308557D01*
X105364286Y-131208557D02*
X104935714Y-131208557D01*
X104935714Y-131208557D02*
X104935714Y-130308557D01*
X105664285Y-130737128D02*
X105964285Y-130737128D01*
X106092857Y-131208557D02*
X105664285Y-131208557D01*
X105664285Y-131208557D02*
X105664285Y-130308557D01*
X105664285Y-130308557D02*
X106092857Y-130308557D01*
X107078571Y-130608557D02*
X107292857Y-131208557D01*
X107292857Y-131208557D02*
X107507142Y-130608557D01*
X107807142Y-130394271D02*
X107849999Y-130351414D01*
X107849999Y-130351414D02*
X107935714Y-130308557D01*
X107935714Y-130308557D02*
X108149999Y-130308557D01*
X108149999Y-130308557D02*
X108235714Y-130351414D01*
X108235714Y-130351414D02*
X108278571Y-130394271D01*
X108278571Y-130394271D02*
X108321428Y-130479985D01*
X108321428Y-130479985D02*
X108321428Y-130565700D01*
X108321428Y-130565700D02*
X108278571Y-130694271D01*
X108278571Y-130694271D02*
X107764285Y-131208557D01*
X107764285Y-131208557D02*
X108321428Y-131208557D01*
X70466667Y-68854819D02*
X70466667Y-67854819D01*
X70466667Y-67854819D02*
X70847619Y-67854819D01*
X70847619Y-67854819D02*
X70942857Y-67902438D01*
X70942857Y-67902438D02*
X70990476Y-67950057D01*
X70990476Y-67950057D02*
X71038095Y-68045295D01*
X71038095Y-68045295D02*
X71038095Y-68188152D01*
X71038095Y-68188152D02*
X70990476Y-68283390D01*
X70990476Y-68283390D02*
X70942857Y-68331009D01*
X70942857Y-68331009D02*
X70847619Y-68378628D01*
X70847619Y-68378628D02*
X70466667Y-68378628D01*
X71371429Y-67854819D02*
X71609524Y-68854819D01*
X71609524Y-68854819D02*
X71800000Y-68140533D01*
X71800000Y-68140533D02*
X71990476Y-68854819D01*
X71990476Y-68854819D02*
X72228572Y-67854819D01*
X73180952Y-68854819D02*
X72847619Y-68378628D01*
X72609524Y-68854819D02*
X72609524Y-67854819D01*
X72609524Y-67854819D02*
X72990476Y-67854819D01*
X72990476Y-67854819D02*
X73085714Y-67902438D01*
X73085714Y-67902438D02*
X73133333Y-67950057D01*
X73133333Y-67950057D02*
X73180952Y-68045295D01*
X73180952Y-68045295D02*
X73180952Y-68188152D01*
X73180952Y-68188152D02*
X73133333Y-68283390D01*
X73133333Y-68283390D02*
X73085714Y-68331009D01*
X73085714Y-68331009D02*
X72990476Y-68378628D01*
X72990476Y-68378628D02*
X72609524Y-68378628D01*
X70847618Y-100854819D02*
X70514285Y-100378628D01*
X70276190Y-100854819D02*
X70276190Y-99854819D01*
X70276190Y-99854819D02*
X70657142Y-99854819D01*
X70657142Y-99854819D02*
X70752380Y-99902438D01*
X70752380Y-99902438D02*
X70799999Y-99950057D01*
X70799999Y-99950057D02*
X70847618Y-100045295D01*
X70847618Y-100045295D02*
X70847618Y-100188152D01*
X70847618Y-100188152D02*
X70799999Y-100283390D01*
X70799999Y-100283390D02*
X70752380Y-100331009D01*
X70752380Y-100331009D02*
X70657142Y-100378628D01*
X70657142Y-100378628D02*
X70276190Y-100378628D01*
X71276190Y-100331009D02*
X71609523Y-100331009D01*
X71752380Y-100854819D02*
X71276190Y-100854819D01*
X71276190Y-100854819D02*
X71276190Y-99854819D01*
X71276190Y-99854819D02*
X71752380Y-99854819D01*
X72133333Y-100807200D02*
X72276190Y-100854819D01*
X72276190Y-100854819D02*
X72514285Y-100854819D01*
X72514285Y-100854819D02*
X72609523Y-100807200D01*
X72609523Y-100807200D02*
X72657142Y-100759580D01*
X72657142Y-100759580D02*
X72704761Y-100664342D01*
X72704761Y-100664342D02*
X72704761Y-100569104D01*
X72704761Y-100569104D02*
X72657142Y-100473866D01*
X72657142Y-100473866D02*
X72609523Y-100426247D01*
X72609523Y-100426247D02*
X72514285Y-100378628D01*
X72514285Y-100378628D02*
X72323809Y-100331009D01*
X72323809Y-100331009D02*
X72228571Y-100283390D01*
X72228571Y-100283390D02*
X72180952Y-100235771D01*
X72180952Y-100235771D02*
X72133333Y-100140533D01*
X72133333Y-100140533D02*
X72133333Y-100045295D01*
X72133333Y-100045295D02*
X72180952Y-99950057D01*
X72180952Y-99950057D02*
X72228571Y-99902438D01*
X72228571Y-99902438D02*
X72323809Y-99854819D01*
X72323809Y-99854819D02*
X72561904Y-99854819D01*
X72561904Y-99854819D02*
X72704761Y-99902438D01*
X73133333Y-100331009D02*
X73466666Y-100331009D01*
X73609523Y-100854819D02*
X73133333Y-100854819D01*
X73133333Y-100854819D02*
X73133333Y-99854819D01*
X73133333Y-99854819D02*
X73609523Y-99854819D01*
X73895238Y-99854819D02*
X74466666Y-99854819D01*
X74180952Y-100854819D02*
X74180952Y-99854819D01*
X105466667Y-122954819D02*
X105800000Y-123954819D01*
X105800000Y-123954819D02*
X106133333Y-122954819D01*
X106800000Y-123431009D02*
X106942857Y-123478628D01*
X106942857Y-123478628D02*
X106990476Y-123526247D01*
X106990476Y-123526247D02*
X107038095Y-123621485D01*
X107038095Y-123621485D02*
X107038095Y-123764342D01*
X107038095Y-123764342D02*
X106990476Y-123859580D01*
X106990476Y-123859580D02*
X106942857Y-123907200D01*
X106942857Y-123907200D02*
X106847619Y-123954819D01*
X106847619Y-123954819D02*
X106466667Y-123954819D01*
X106466667Y-123954819D02*
X106466667Y-122954819D01*
X106466667Y-122954819D02*
X106800000Y-122954819D01*
X106800000Y-122954819D02*
X106895238Y-123002438D01*
X106895238Y-123002438D02*
X106942857Y-123050057D01*
X106942857Y-123050057D02*
X106990476Y-123145295D01*
X106990476Y-123145295D02*
X106990476Y-123240533D01*
X106990476Y-123240533D02*
X106942857Y-123335771D01*
X106942857Y-123335771D02*
X106895238Y-123383390D01*
X106895238Y-123383390D02*
X106800000Y-123431009D01*
X106800000Y-123431009D02*
X106466667Y-123431009D01*
X107466667Y-122954819D02*
X107466667Y-123764342D01*
X107466667Y-123764342D02*
X107514286Y-123859580D01*
X107514286Y-123859580D02*
X107561905Y-123907200D01*
X107561905Y-123907200D02*
X107657143Y-123954819D01*
X107657143Y-123954819D02*
X107847619Y-123954819D01*
X107847619Y-123954819D02*
X107942857Y-123907200D01*
X107942857Y-123907200D02*
X107990476Y-123859580D01*
X107990476Y-123859580D02*
X108038095Y-123764342D01*
X108038095Y-123764342D02*
X108038095Y-122954819D01*
X108466667Y-123907200D02*
X108609524Y-123954819D01*
X108609524Y-123954819D02*
X108847619Y-123954819D01*
X108847619Y-123954819D02*
X108942857Y-123907200D01*
X108942857Y-123907200D02*
X108990476Y-123859580D01*
X108990476Y-123859580D02*
X109038095Y-123764342D01*
X109038095Y-123764342D02*
X109038095Y-123669104D01*
X109038095Y-123669104D02*
X108990476Y-123573866D01*
X108990476Y-123573866D02*
X108942857Y-123526247D01*
X108942857Y-123526247D02*
X108847619Y-123478628D01*
X108847619Y-123478628D02*
X108657143Y-123431009D01*
X108657143Y-123431009D02*
X108561905Y-123383390D01*
X108561905Y-123383390D02*
X108514286Y-123335771D01*
X108514286Y-123335771D02*
X108466667Y-123240533D01*
X108466667Y-123240533D02*
X108466667Y-123145295D01*
X108466667Y-123145295D02*
X108514286Y-123050057D01*
X108514286Y-123050057D02*
X108561905Y-123002438D01*
X108561905Y-123002438D02*
X108657143Y-122954819D01*
X108657143Y-122954819D02*
X108895238Y-122954819D01*
X108895238Y-122954819D02*
X109038095Y-123002438D01*
D11*
X106285714Y-84845782D02*
X106514286Y-84845782D01*
X106514286Y-84845782D02*
X106628571Y-84902925D01*
X106628571Y-84902925D02*
X106742857Y-85017211D01*
X106742857Y-85017211D02*
X106800000Y-85245782D01*
X106800000Y-85245782D02*
X106800000Y-85645782D01*
X106800000Y-85645782D02*
X106742857Y-85874354D01*
X106742857Y-85874354D02*
X106628571Y-85988640D01*
X106628571Y-85988640D02*
X106514286Y-86045782D01*
X106514286Y-86045782D02*
X106285714Y-86045782D01*
X106285714Y-86045782D02*
X106171429Y-85988640D01*
X106171429Y-85988640D02*
X106057143Y-85874354D01*
X106057143Y-85874354D02*
X106000000Y-85645782D01*
X106000000Y-85645782D02*
X106000000Y-85245782D01*
X106000000Y-85245782D02*
X106057143Y-85017211D01*
X106057143Y-85017211D02*
X106171429Y-84902925D01*
X106171429Y-84902925D02*
X106285714Y-84845782D01*
X107314286Y-86045782D02*
X107314286Y-84845782D01*
X108000000Y-86045782D02*
X107485714Y-85360068D01*
X108000000Y-84845782D02*
X107314286Y-85531497D01*
X105942857Y-109105782D02*
X105942857Y-107905782D01*
X105942857Y-107905782D02*
X106228571Y-107905782D01*
X106228571Y-107905782D02*
X106400000Y-107962925D01*
X106400000Y-107962925D02*
X106514285Y-108077211D01*
X106514285Y-108077211D02*
X106571428Y-108191497D01*
X106571428Y-108191497D02*
X106628571Y-108420068D01*
X106628571Y-108420068D02*
X106628571Y-108591497D01*
X106628571Y-108591497D02*
X106571428Y-108820068D01*
X106571428Y-108820068D02*
X106514285Y-108934354D01*
X106514285Y-108934354D02*
X106400000Y-109048640D01*
X106400000Y-109048640D02*
X106228571Y-109105782D01*
X106228571Y-109105782D02*
X105942857Y-109105782D01*
X107142857Y-108648640D02*
X108057143Y-108648640D01*
X107600000Y-109105782D02*
X107600000Y-108191497D01*
X105942857Y-116575782D02*
X105942857Y-115375782D01*
X105942857Y-115375782D02*
X106228571Y-115375782D01*
X106228571Y-115375782D02*
X106400000Y-115432925D01*
X106400000Y-115432925D02*
X106514285Y-115547211D01*
X106514285Y-115547211D02*
X106571428Y-115661497D01*
X106571428Y-115661497D02*
X106628571Y-115890068D01*
X106628571Y-115890068D02*
X106628571Y-116061497D01*
X106628571Y-116061497D02*
X106571428Y-116290068D01*
X106571428Y-116290068D02*
X106514285Y-116404354D01*
X106514285Y-116404354D02*
X106400000Y-116518640D01*
X106400000Y-116518640D02*
X106228571Y-116575782D01*
X106228571Y-116575782D02*
X105942857Y-116575782D01*
X107142857Y-116118640D02*
X108057143Y-116118640D01*
D12*
X67909638Y-134928572D02*
X69528685Y-134928572D01*
X69528685Y-134928572D02*
X69719161Y-134833334D01*
X69719161Y-134833334D02*
X69814400Y-134738096D01*
X69814400Y-134738096D02*
X69909638Y-134547620D01*
X69909638Y-134547620D02*
X69909638Y-134166667D01*
X69909638Y-134166667D02*
X69814400Y-133976191D01*
X69814400Y-133976191D02*
X69719161Y-133880953D01*
X69719161Y-133880953D02*
X69528685Y-133785715D01*
X69528685Y-133785715D02*
X67909638Y-133785715D01*
X69814400Y-132928572D02*
X69909638Y-132642858D01*
X69909638Y-132642858D02*
X69909638Y-132166667D01*
X69909638Y-132166667D02*
X69814400Y-131976191D01*
X69814400Y-131976191D02*
X69719161Y-131880953D01*
X69719161Y-131880953D02*
X69528685Y-131785715D01*
X69528685Y-131785715D02*
X69338209Y-131785715D01*
X69338209Y-131785715D02*
X69147733Y-131880953D01*
X69147733Y-131880953D02*
X69052495Y-131976191D01*
X69052495Y-131976191D02*
X68957257Y-132166667D01*
X68957257Y-132166667D02*
X68862019Y-132547620D01*
X68862019Y-132547620D02*
X68766780Y-132738096D01*
X68766780Y-132738096D02*
X68671542Y-132833334D01*
X68671542Y-132833334D02*
X68481066Y-132928572D01*
X68481066Y-132928572D02*
X68290590Y-132928572D01*
X68290590Y-132928572D02*
X68100114Y-132833334D01*
X68100114Y-132833334D02*
X68004876Y-132738096D01*
X68004876Y-132738096D02*
X67909638Y-132547620D01*
X67909638Y-132547620D02*
X67909638Y-132071429D01*
X67909638Y-132071429D02*
X68004876Y-131785715D01*
X68862019Y-130261905D02*
X68957257Y-129976191D01*
X68957257Y-129976191D02*
X69052495Y-129880953D01*
X69052495Y-129880953D02*
X69242971Y-129785715D01*
X69242971Y-129785715D02*
X69528685Y-129785715D01*
X69528685Y-129785715D02*
X69719161Y-129880953D01*
X69719161Y-129880953D02*
X69814400Y-129976191D01*
X69814400Y-129976191D02*
X69909638Y-130166667D01*
X69909638Y-130166667D02*
X69909638Y-130928572D01*
X69909638Y-130928572D02*
X67909638Y-130928572D01*
X67909638Y-130928572D02*
X67909638Y-130261905D01*
X67909638Y-130261905D02*
X68004876Y-130071429D01*
X68004876Y-130071429D02*
X68100114Y-129976191D01*
X68100114Y-129976191D02*
X68290590Y-129880953D01*
X68290590Y-129880953D02*
X68481066Y-129880953D01*
X68481066Y-129880953D02*
X68671542Y-129976191D01*
X68671542Y-129976191D02*
X68766780Y-130071429D01*
X68766780Y-130071429D02*
X68862019Y-130261905D01*
X68862019Y-130261905D02*
X68862019Y-130928572D01*
X69909638Y-127404762D02*
X67909638Y-127404762D01*
X69909638Y-126261905D02*
X68766780Y-127119048D01*
X67909638Y-126261905D02*
X69052495Y-127404762D01*
X69909638Y-125404762D02*
X67909638Y-125404762D01*
X69909638Y-123500000D02*
X69909638Y-124452381D01*
X69909638Y-124452381D02*
X67909638Y-124452381D01*
X69909638Y-121880952D02*
X69909638Y-122833333D01*
X69909638Y-122833333D02*
X67909638Y-122833333D01*
X68862019Y-121214285D02*
X68862019Y-120547618D01*
X69909638Y-120261904D02*
X69909638Y-121214285D01*
X69909638Y-121214285D02*
X67909638Y-121214285D01*
X67909638Y-121214285D02*
X67909638Y-120261904D01*
X69909638Y-118261904D02*
X68957257Y-118928571D01*
X69909638Y-119404761D02*
X67909638Y-119404761D01*
X67909638Y-119404761D02*
X67909638Y-118642856D01*
X67909638Y-118642856D02*
X68004876Y-118452380D01*
X68004876Y-118452380D02*
X68100114Y-118357142D01*
X68100114Y-118357142D02*
X68290590Y-118261904D01*
X68290590Y-118261904D02*
X68576304Y-118261904D01*
X68576304Y-118261904D02*
X68766780Y-118357142D01*
X68766780Y-118357142D02*
X68862019Y-118452380D01*
X68862019Y-118452380D02*
X68957257Y-118642856D01*
X68957257Y-118642856D02*
X68957257Y-119404761D01*
X69909638Y-115880951D02*
X67909638Y-115880951D01*
X67909638Y-115880951D02*
X67909638Y-115404761D01*
X67909638Y-115404761D02*
X68004876Y-115119046D01*
X68004876Y-115119046D02*
X68195352Y-114928570D01*
X68195352Y-114928570D02*
X68385828Y-114833332D01*
X68385828Y-114833332D02*
X68766780Y-114738094D01*
X68766780Y-114738094D02*
X69052495Y-114738094D01*
X69052495Y-114738094D02*
X69433447Y-114833332D01*
X69433447Y-114833332D02*
X69623923Y-114928570D01*
X69623923Y-114928570D02*
X69814400Y-115119046D01*
X69814400Y-115119046D02*
X69909638Y-115404761D01*
X69909638Y-115404761D02*
X69909638Y-115880951D01*
X68862019Y-113880951D02*
X68862019Y-113214284D01*
X69909638Y-112928570D02*
X69909638Y-113880951D01*
X69909638Y-113880951D02*
X67909638Y-113880951D01*
X67909638Y-113880951D02*
X67909638Y-112928570D01*
X67909638Y-112357141D02*
X67909638Y-111214284D01*
X69909638Y-111785713D02*
X67909638Y-111785713D01*
X68862019Y-110547617D02*
X68862019Y-109880950D01*
X69909638Y-109595236D02*
X69909638Y-110547617D01*
X69909638Y-110547617D02*
X67909638Y-110547617D01*
X67909638Y-110547617D02*
X67909638Y-109595236D01*
X69719161Y-107595236D02*
X69814400Y-107690474D01*
X69814400Y-107690474D02*
X69909638Y-107976188D01*
X69909638Y-107976188D02*
X69909638Y-108166664D01*
X69909638Y-108166664D02*
X69814400Y-108452379D01*
X69814400Y-108452379D02*
X69623923Y-108642855D01*
X69623923Y-108642855D02*
X69433447Y-108738093D01*
X69433447Y-108738093D02*
X69052495Y-108833331D01*
X69052495Y-108833331D02*
X68766780Y-108833331D01*
X68766780Y-108833331D02*
X68385828Y-108738093D01*
X68385828Y-108738093D02*
X68195352Y-108642855D01*
X68195352Y-108642855D02*
X68004876Y-108452379D01*
X68004876Y-108452379D02*
X67909638Y-108166664D01*
X67909638Y-108166664D02*
X67909638Y-107976188D01*
X67909638Y-107976188D02*
X68004876Y-107690474D01*
X68004876Y-107690474D02*
X68100114Y-107595236D01*
X67909638Y-107023807D02*
X67909638Y-105880950D01*
X69909638Y-106452379D02*
X67909638Y-106452379D01*
X67909638Y-104833331D02*
X67909638Y-104452378D01*
X67909638Y-104452378D02*
X68004876Y-104261902D01*
X68004876Y-104261902D02*
X68195352Y-104071426D01*
X68195352Y-104071426D02*
X68576304Y-103976188D01*
X68576304Y-103976188D02*
X69242971Y-103976188D01*
X69242971Y-103976188D02*
X69623923Y-104071426D01*
X69623923Y-104071426D02*
X69814400Y-104261902D01*
X69814400Y-104261902D02*
X69909638Y-104452378D01*
X69909638Y-104452378D02*
X69909638Y-104833331D01*
X69909638Y-104833331D02*
X69814400Y-105023807D01*
X69814400Y-105023807D02*
X69623923Y-105214283D01*
X69623923Y-105214283D02*
X69242971Y-105309521D01*
X69242971Y-105309521D02*
X68576304Y-105309521D01*
X68576304Y-105309521D02*
X68195352Y-105214283D01*
X68195352Y-105214283D02*
X68004876Y-105023807D01*
X68004876Y-105023807D02*
X67909638Y-104833331D01*
X69909638Y-101976188D02*
X68957257Y-102642855D01*
X69909638Y-103119045D02*
X67909638Y-103119045D01*
X67909638Y-103119045D02*
X67909638Y-102357140D01*
X67909638Y-102357140D02*
X68004876Y-102166664D01*
X68004876Y-102166664D02*
X68100114Y-102071426D01*
X68100114Y-102071426D02*
X68290590Y-101976188D01*
X68290590Y-101976188D02*
X68576304Y-101976188D01*
X68576304Y-101976188D02*
X68766780Y-102071426D01*
X68766780Y-102071426D02*
X68862019Y-102166664D01*
X68862019Y-102166664D02*
X68957257Y-102357140D01*
X68957257Y-102357140D02*
X68957257Y-103119045D01*
D10*
X83081009Y-125833333D02*
X83081009Y-126166666D01*
X83604819Y-126166666D02*
X82604819Y-126166666D01*
X82604819Y-126166666D02*
X82604819Y-125690476D01*
X83604819Y-124785714D02*
X83604819Y-125357142D01*
X83604819Y-125071428D02*
X82604819Y-125071428D01*
X82604819Y-125071428D02*
X82747676Y-125166666D01*
X82747676Y-125166666D02*
X82842914Y-125261904D01*
X82842914Y-125261904D02*
X82890533Y-125357142D01*
X87238095Y-88054819D02*
X87238095Y-88864342D01*
X87238095Y-88864342D02*
X87285714Y-88959580D01*
X87285714Y-88959580D02*
X87333333Y-89007200D01*
X87333333Y-89007200D02*
X87428571Y-89054819D01*
X87428571Y-89054819D02*
X87619047Y-89054819D01*
X87619047Y-89054819D02*
X87714285Y-89007200D01*
X87714285Y-89007200D02*
X87761904Y-88959580D01*
X87761904Y-88959580D02*
X87809523Y-88864342D01*
X87809523Y-88864342D02*
X87809523Y-88054819D01*
X88190476Y-88054819D02*
X88809523Y-88054819D01*
X88809523Y-88054819D02*
X88476190Y-88435771D01*
X88476190Y-88435771D02*
X88619047Y-88435771D01*
X88619047Y-88435771D02*
X88714285Y-88483390D01*
X88714285Y-88483390D02*
X88761904Y-88531009D01*
X88761904Y-88531009D02*
X88809523Y-88626247D01*
X88809523Y-88626247D02*
X88809523Y-88864342D01*
X88809523Y-88864342D02*
X88761904Y-88959580D01*
X88761904Y-88959580D02*
X88714285Y-89007200D01*
X88714285Y-89007200D02*
X88619047Y-89054819D01*
X88619047Y-89054819D02*
X88333333Y-89054819D01*
X88333333Y-89054819D02*
X88238095Y-89007200D01*
X88238095Y-89007200D02*
X88190476Y-88959580D01*
X87238095Y-112734819D02*
X87238095Y-113544342D01*
X87238095Y-113544342D02*
X87285714Y-113639580D01*
X87285714Y-113639580D02*
X87333333Y-113687200D01*
X87333333Y-113687200D02*
X87428571Y-113734819D01*
X87428571Y-113734819D02*
X87619047Y-113734819D01*
X87619047Y-113734819D02*
X87714285Y-113687200D01*
X87714285Y-113687200D02*
X87761904Y-113639580D01*
X87761904Y-113639580D02*
X87809523Y-113544342D01*
X87809523Y-113544342D02*
X87809523Y-112734819D01*
X88809523Y-113734819D02*
X88238095Y-113734819D01*
X88523809Y-113734819D02*
X88523809Y-112734819D01*
X88523809Y-112734819D02*
X88428571Y-112877676D01*
X88428571Y-112877676D02*
X88333333Y-112972914D01*
X88333333Y-112972914D02*
X88238095Y-113020533D01*
X88166666Y-128704819D02*
X88166666Y-129419104D01*
X88166666Y-129419104D02*
X88119047Y-129561961D01*
X88119047Y-129561961D02*
X88023809Y-129657200D01*
X88023809Y-129657200D02*
X87880952Y-129704819D01*
X87880952Y-129704819D02*
X87785714Y-129704819D01*
X89166666Y-129704819D02*
X88595238Y-129704819D01*
X88880952Y-129704819D02*
X88880952Y-128704819D01*
X88880952Y-128704819D02*
X88785714Y-128847676D01*
X88785714Y-128847676D02*
X88690476Y-128942914D01*
X88690476Y-128942914D02*
X88595238Y-128990533D01*
X87346666Y-64854819D02*
X87346666Y-65569104D01*
X87346666Y-65569104D02*
X87299047Y-65711961D01*
X87299047Y-65711961D02*
X87203809Y-65807200D01*
X87203809Y-65807200D02*
X87060952Y-65854819D01*
X87060952Y-65854819D02*
X86965714Y-65854819D01*
X87775238Y-64950057D02*
X87822857Y-64902438D01*
X87822857Y-64902438D02*
X87918095Y-64854819D01*
X87918095Y-64854819D02*
X88156190Y-64854819D01*
X88156190Y-64854819D02*
X88251428Y-64902438D01*
X88251428Y-64902438D02*
X88299047Y-64950057D01*
X88299047Y-64950057D02*
X88346666Y-65045295D01*
X88346666Y-65045295D02*
X88346666Y-65140533D01*
X88346666Y-65140533D02*
X88299047Y-65283390D01*
X88299047Y-65283390D02*
X87727619Y-65854819D01*
X87727619Y-65854819D02*
X88346666Y-65854819D01*
X87238095Y-73174819D02*
X87238095Y-73984342D01*
X87238095Y-73984342D02*
X87285714Y-74079580D01*
X87285714Y-74079580D02*
X87333333Y-74127200D01*
X87333333Y-74127200D02*
X87428571Y-74174819D01*
X87428571Y-74174819D02*
X87619047Y-74174819D01*
X87619047Y-74174819D02*
X87714285Y-74127200D01*
X87714285Y-74127200D02*
X87761904Y-74079580D01*
X87761904Y-74079580D02*
X87809523Y-73984342D01*
X87809523Y-73984342D02*
X87809523Y-73174819D01*
X88238095Y-73270057D02*
X88285714Y-73222438D01*
X88285714Y-73222438D02*
X88380952Y-73174819D01*
X88380952Y-73174819D02*
X88619047Y-73174819D01*
X88619047Y-73174819D02*
X88714285Y-73222438D01*
X88714285Y-73222438D02*
X88761904Y-73270057D01*
X88761904Y-73270057D02*
X88809523Y-73365295D01*
X88809523Y-73365295D02*
X88809523Y-73460533D01*
X88809523Y-73460533D02*
X88761904Y-73603390D01*
X88761904Y-73603390D02*
X88190476Y-74174819D01*
X88190476Y-74174819D02*
X88809523Y-74174819D01*
%TO.C,F1*%
D13*
X78790000Y-124113748D02*
X78790000Y-126886252D01*
X82210000Y-124113748D02*
X82210000Y-126886252D01*
%TO.C,R4*%
X70272936Y-70265000D02*
X70727064Y-70265000D01*
X70272936Y-71735000D02*
X70727064Y-71735000D01*
%TO.C,C9*%
X81865000Y-76261252D02*
X81865000Y-75738748D01*
X83335000Y-76261252D02*
X83335000Y-75738748D01*
%TO.C,U3*%
X85940000Y-89440000D02*
X90060000Y-89440000D01*
X85940000Y-89495000D02*
X85940000Y-89440000D01*
X85940000Y-99560000D02*
X85940000Y-99505000D01*
X90060000Y-89440000D02*
X90060000Y-89495000D01*
X90060000Y-99505000D02*
X90060000Y-99560000D01*
X90060000Y-99560000D02*
X85940000Y-99560000D01*
X85400000Y-89490000D02*
X85160000Y-89160000D01*
X85640000Y-89160000D01*
X85400000Y-89490000D01*
G36*
X85400000Y-89490000D02*
G01*
X85160000Y-89160000D01*
X85640000Y-89160000D01*
X85400000Y-89490000D01*
G37*
%TO.C,D3*%
X74350000Y-123510000D02*
X74350000Y-118000000D01*
X74350000Y-123510000D02*
X77650000Y-123510000D01*
X77650000Y-123510000D02*
X77650000Y-118000000D01*
%TO.C,R8*%
X89590000Y-121727064D02*
X89590000Y-120272936D01*
X91410000Y-121727064D02*
X91410000Y-120272936D01*
%TO.C,R10*%
X88372936Y-114265000D02*
X88827064Y-114265000D01*
X88372936Y-115735000D02*
X88827064Y-115735000D01*
%TO.C,R17*%
X79372936Y-82665000D02*
X79827064Y-82665000D01*
X79372936Y-84135000D02*
X79827064Y-84135000D01*
%TO.C,D14*%
X94000000Y-84360000D02*
X94000000Y-80350000D01*
X94000000Y-84360000D02*
X96000000Y-84360000D01*
X96000000Y-84360000D02*
X96000000Y-80350000D01*
%TO.C,D11*%
X104055000Y-125045000D02*
X104055000Y-121955000D01*
X98505000Y-123500000D02*
G75*
G02*
X104055000Y-121955170I2990000J0D01*
G01*
X104055000Y-125044830D02*
G75*
G02*
X98505000Y-123500000I-2560000J1544830D01*
G01*
X103995000Y-123500000D02*
G75*
G02*
X98995000Y-123500000I-2500000J0D01*
G01*
X98995000Y-123500000D02*
G75*
G02*
X103995000Y-123500000I2500000J0D01*
G01*
%TO.C,R13*%
X80972936Y-106765000D02*
X81427064Y-106765000D01*
X80972936Y-108235000D02*
X81427064Y-108235000D01*
%TO.C,R21*%
X77765000Y-91227064D02*
X77765000Y-90772936D01*
X79235000Y-91227064D02*
X79235000Y-90772936D01*
%TO.C,C1*%
X79565000Y-62461252D02*
X79565000Y-61938748D01*
X81035000Y-62461252D02*
X81035000Y-61938748D01*
%TO.C,C2*%
X79565000Y-67061252D02*
X79565000Y-66538748D01*
X81035000Y-67061252D02*
X81035000Y-66538748D01*
%TO.C,D10*%
X104055000Y-117575000D02*
X104055000Y-114485000D01*
X98505000Y-116030000D02*
G75*
G02*
X104055000Y-114485170I2990000J0D01*
G01*
X104055000Y-117574830D02*
G75*
G02*
X98505000Y-116030000I-2560000J1544830D01*
G01*
X103995000Y-116030000D02*
G75*
G02*
X98995000Y-116030000I-2500000J0D01*
G01*
X98995000Y-116030000D02*
G75*
G02*
X103995000Y-116030000I2500000J0D01*
G01*
%TO.C,C10*%
X92765000Y-89761252D02*
X92765000Y-89238748D01*
X94235000Y-89761252D02*
X94235000Y-89238748D01*
%TO.C,D9*%
X104055000Y-110105000D02*
X104055000Y-107015000D01*
X98505000Y-108560000D02*
G75*
G02*
X104055000Y-107015170I2990000J0D01*
G01*
X104055000Y-110104830D02*
G75*
G02*
X98505000Y-108560000I-2560000J1544830D01*
G01*
X103995000Y-108560000D02*
G75*
G02*
X98995000Y-108560000I-2500000J0D01*
G01*
X98995000Y-108560000D02*
G75*
G02*
X103995000Y-108560000I2500000J0D01*
G01*
%TO.C,R12*%
X85090000Y-121727064D02*
X85090000Y-120272936D01*
X86910000Y-121727064D02*
X86910000Y-120272936D01*
%TO.C,R9*%
X93372936Y-112665000D02*
X93827064Y-112665000D01*
X93372936Y-114135000D02*
X93827064Y-114135000D01*
%TO.C,R3*%
X75865000Y-66627064D02*
X75865000Y-66172936D01*
X77335000Y-66627064D02*
X77335000Y-66172936D01*
%TO.C,C7*%
X79338748Y-85065000D02*
X79861252Y-85065000D01*
X79338748Y-86535000D02*
X79861252Y-86535000D01*
%TO.C,C6*%
X80938748Y-111565000D02*
X81461252Y-111565000D01*
X80938748Y-113035000D02*
X81461252Y-113035000D01*
%TO.C,D12*%
X94000000Y-74360000D02*
X94000000Y-70350000D01*
X94000000Y-74360000D02*
X96000000Y-74360000D01*
X96000000Y-74360000D02*
X96000000Y-70350000D01*
%TO.C,R19*%
X80765000Y-96727064D02*
X80765000Y-96272936D01*
X82235000Y-96727064D02*
X82235000Y-96272936D01*
%TO.C,U1*%
X85940000Y-103565000D02*
X90060000Y-103565000D01*
X85940000Y-103630000D02*
X85940000Y-103565000D01*
X85940000Y-112435000D02*
X85940000Y-112370000D01*
X90060000Y-103565000D02*
X90060000Y-103630000D01*
X90060000Y-112370000D02*
X90060000Y-112435000D01*
X90060000Y-112435000D02*
X85940000Y-112435000D01*
X90600000Y-112370000D02*
X90840000Y-112700000D01*
X90360000Y-112700000D01*
X90600000Y-112370000D01*
G36*
X90840000Y-112700000D02*
G01*
X90360000Y-112700000D01*
X90600000Y-112370000D01*
X90840000Y-112700000D01*
G37*
%TO.C,J1*%
X81920000Y-132340000D02*
X81920000Y-133990000D01*
X81920000Y-137410000D02*
X81920000Y-144500000D01*
X84090000Y-132340000D02*
X81920000Y-132340000D01*
X84090000Y-132340000D02*
X84090000Y-130500000D01*
X92910000Y-132340000D02*
X95080000Y-132340000D01*
X95080000Y-132340000D02*
X95080000Y-133990000D01*
X95080000Y-137410000D02*
X95080000Y-144500000D01*
%TO.C,R26*%
X102465000Y-80027064D02*
X102465000Y-79572936D01*
X103935000Y-80027064D02*
X103935000Y-79572936D01*
%TO.C,R6*%
X70272936Y-75065000D02*
X70727064Y-75065000D01*
X70272936Y-76535000D02*
X70727064Y-76535000D01*
%TO.C,D2*%
X69210000Y-61955000D02*
X69210000Y-65045000D01*
X69210000Y-61955170D02*
G75*
G02*
X74760000Y-63500000I2560000J-1544830D01*
G01*
X74760000Y-63500000D02*
G75*
G02*
X69210000Y-65044830I-2990000J0D01*
G01*
X74270000Y-63500000D02*
G75*
G02*
X69270000Y-63500000I-2500000J0D01*
G01*
X69270000Y-63500000D02*
G75*
G02*
X74270000Y-63500000I2500000J0D01*
G01*
%TO.C,R25*%
X97265000Y-76227064D02*
X97265000Y-75772936D01*
X98735000Y-76227064D02*
X98735000Y-75772936D01*
%TO.C,R7*%
X89590000Y-127027064D02*
X89590000Y-125572936D01*
X91410000Y-127027064D02*
X91410000Y-125572936D01*
%TO.C,R20*%
X93265000Y-94727064D02*
X93265000Y-94272936D01*
X94735000Y-94727064D02*
X94735000Y-94272936D01*
%TO.C,D6*%
X80240000Y-102440000D02*
X81760000Y-102440000D01*
X80240000Y-102490000D02*
X80240000Y-102440000D01*
X80240000Y-104390000D02*
X80240000Y-103610000D01*
X80240000Y-105560000D02*
X80240000Y-105510000D01*
X81760000Y-102440000D02*
X81760000Y-103440000D01*
X81760000Y-104560000D02*
X81760000Y-105560000D01*
X81760000Y-105560000D02*
X80240000Y-105560000D01*
X79700000Y-103620000D02*
X79940000Y-103950000D01*
X79460000Y-103950000D01*
X79700000Y-103620000D01*
G36*
X79940000Y-103950000D02*
G01*
X79460000Y-103950000D01*
X79700000Y-103620000D01*
X79940000Y-103950000D01*
G37*
%TO.C,D8*%
X70640000Y-88500000D02*
X70640000Y-90500000D01*
X70640000Y-88500000D02*
X74650000Y-88500000D01*
X70640000Y-90500000D02*
X74650000Y-90500000D01*
%TO.C,D1*%
X95950000Y-65910000D02*
X95950000Y-60400000D01*
X95950000Y-65910000D02*
X99250000Y-65910000D01*
X99250000Y-65910000D02*
X99250000Y-60400000D01*
%TO.C,R14*%
X80972936Y-109165000D02*
X81427064Y-109165000D01*
X80972936Y-110635000D02*
X81427064Y-110635000D01*
%TO.C,R24*%
X95865000Y-121727064D02*
X95865000Y-121272936D01*
X97335000Y-121727064D02*
X97335000Y-121272936D01*
%TO.C,D7*%
X73440000Y-78740000D02*
X74440000Y-78740000D01*
X73440000Y-80260000D02*
X73440000Y-78740000D01*
X73490000Y-80260000D02*
X73440000Y-80260000D01*
X75390000Y-80260000D02*
X74610000Y-80260000D01*
X75560000Y-78740000D02*
X76560000Y-78740000D01*
X76560000Y-78740000D02*
X76560000Y-80260000D01*
X76560000Y-80260000D02*
X76510000Y-80260000D01*
X74620000Y-80800000D02*
X74950000Y-80560000D01*
X74950000Y-81040000D01*
X74620000Y-80800000D01*
G36*
X74950000Y-81040000D02*
G01*
X74620000Y-80800000D01*
X74950000Y-80560000D01*
X74950000Y-81040000D01*
G37*
%TO.C,C4*%
X74638748Y-72665000D02*
X75161252Y-72665000D01*
X74638748Y-74135000D02*
X75161252Y-74135000D01*
%TO.C,R11*%
X85090000Y-127027064D02*
X85090000Y-125572936D01*
X86910000Y-127027064D02*
X86910000Y-125572936D01*
%TO.C,R18*%
X80765000Y-92227064D02*
X80765000Y-91772936D01*
X82235000Y-92227064D02*
X82235000Y-91772936D01*
%TO.C,C5*%
X88338748Y-116665000D02*
X88861252Y-116665000D01*
X88338748Y-118135000D02*
X88861252Y-118135000D01*
%TO.C,R22*%
X95865000Y-106727064D02*
X95865000Y-106272936D01*
X97335000Y-106727064D02*
X97335000Y-106272936D01*
%TO.C,D13*%
X94000000Y-79360000D02*
X94000000Y-75350000D01*
X94000000Y-79360000D02*
X96000000Y-79360000D01*
X96000000Y-79360000D02*
X96000000Y-75350000D01*
%TO.C,R15*%
X82090000Y-120227064D02*
X82090000Y-118772936D01*
X83910000Y-120227064D02*
X83910000Y-118772936D01*
%TO.C,C11*%
X77765000Y-95761252D02*
X77765000Y-95238748D01*
X79235000Y-95761252D02*
X79235000Y-95238748D01*
%TO.C,R23*%
X95865000Y-114227064D02*
X95865000Y-113772936D01*
X97335000Y-114227064D02*
X97335000Y-113772936D01*
%TO.C,D15*%
X99170000Y-83955000D02*
X99170000Y-87045000D01*
X99170000Y-83955170D02*
G75*
G02*
X104720000Y-85500000I2560000J-1544830D01*
G01*
X104720000Y-85500000D02*
G75*
G02*
X99170000Y-87044830I-2990000J0D01*
G01*
X104230000Y-85500000D02*
G75*
G02*
X99230000Y-85500000I-2500000J0D01*
G01*
X99230000Y-85500000D02*
G75*
G02*
X104230000Y-85500000I2500000J0D01*
G01*
%TO.C,J2*%
X83010000Y-60550000D02*
X83010000Y-62250000D01*
X92350000Y-60550000D02*
X92350000Y-62250000D01*
%TO.C,R2*%
X88265000Y-67627064D02*
X88265000Y-67172936D01*
X89735000Y-67627064D02*
X89735000Y-67172936D01*
%TO.C,C8*%
X92865000Y-110761252D02*
X92865000Y-110238748D01*
X94335000Y-110761252D02*
X94335000Y-110238748D01*
%TO.C,R1*%
X85865000Y-67627064D02*
X85865000Y-67172936D01*
X87335000Y-67627064D02*
X87335000Y-67172936D01*
%TO.C,R16*%
X79372936Y-80265000D02*
X79827064Y-80265000D01*
X79372936Y-81735000D02*
X79827064Y-81735000D01*
%TO.C,D4*%
X80810000Y-130150000D02*
X75300000Y-130150000D01*
X80810000Y-133450000D02*
X75300000Y-133450000D01*
X80810000Y-133450000D02*
X80810000Y-130150000D01*
%TO.C,R5*%
X70272936Y-72665000D02*
X70727064Y-72665000D01*
X70272936Y-74135000D02*
X70727064Y-74135000D01*
%TO.C,U2*%
X85940000Y-74565000D02*
X90060000Y-74565000D01*
X85940000Y-74630000D02*
X85940000Y-74565000D01*
X85940000Y-83435000D02*
X85940000Y-83370000D01*
X90060000Y-74565000D02*
X90060000Y-74630000D01*
X90060000Y-83370000D02*
X90060000Y-83435000D01*
X90060000Y-83435000D02*
X85940000Y-83435000D01*
X85400000Y-74630000D02*
X85160000Y-74300000D01*
X85640000Y-74300000D01*
X85400000Y-74630000D01*
G36*
X85400000Y-74630000D02*
G01*
X85160000Y-74300000D01*
X85640000Y-74300000D01*
X85400000Y-74630000D01*
G37*
%TO.C,D5*%
X92740000Y-114940000D02*
X94260000Y-114940000D01*
X92740000Y-114990000D02*
X92740000Y-114940000D01*
X92740000Y-116890000D02*
X92740000Y-116110000D01*
X92740000Y-118060000D02*
X92740000Y-118010000D01*
X94260000Y-114940000D02*
X94260000Y-115940000D01*
X94260000Y-117060000D02*
X94260000Y-118060000D01*
X94260000Y-118060000D02*
X92740000Y-118060000D01*
X92200000Y-116120000D02*
X92440000Y-116450000D01*
X91960000Y-116450000D01*
X92200000Y-116120000D01*
G36*
X92440000Y-116450000D02*
G01*
X91960000Y-116450000D01*
X92200000Y-116120000D01*
X92440000Y-116450000D01*
G37*
%TO.C,C3*%
X74638748Y-70265000D02*
X75161252Y-70265000D01*
X74638748Y-71735000D02*
X75161252Y-71735000D01*
%TO.C,SW1*%
X69150000Y-92050000D02*
X75450000Y-92050000D01*
X69150000Y-92300000D02*
X69150000Y-92050000D01*
X69150000Y-96800000D02*
X69150000Y-94200000D01*
X69150000Y-98950000D02*
X69150000Y-98700000D01*
X75450000Y-92050000D02*
X75450000Y-92300000D01*
X75450000Y-94200000D02*
X75450000Y-96800000D01*
X75450000Y-98700000D02*
X75450000Y-98950000D01*
X75450000Y-98950000D02*
X69150000Y-98950000D01*
%TD*%
%LPC*%
D14*
%TO.C,F1*%
X80500000Y-123362500D03*
X80500000Y-127637500D03*
%TD*%
D15*
%TO.C,R4*%
X69587500Y-71000000D03*
X71412500Y-71000000D03*
%TD*%
D16*
%TO.C,C9*%
X82600000Y-76950000D03*
X82600000Y-75050000D03*
%TD*%
D17*
%TO.C,U3*%
X85525000Y-90055000D03*
X85525000Y-91325000D03*
X85525000Y-92595000D03*
X85525000Y-93865000D03*
X85525000Y-95135000D03*
X85525000Y-96405000D03*
X85525000Y-97675000D03*
X85525000Y-98945000D03*
X90475000Y-98945000D03*
X90475000Y-97675000D03*
X90475000Y-96405000D03*
X90475000Y-95135000D03*
X90475000Y-93865000D03*
X90475000Y-92595000D03*
X90475000Y-91325000D03*
X90475000Y-90055000D03*
%TD*%
D18*
%TO.C,D3*%
X76000000Y-122000000D03*
X76000000Y-118000000D03*
%TD*%
D19*
%TO.C,R8*%
X90500000Y-122462500D03*
X90500000Y-119537500D03*
%TD*%
D15*
%TO.C,R10*%
X87687500Y-115000000D03*
X89512500Y-115000000D03*
%TD*%
%TO.C,R17*%
X78687500Y-83400000D03*
X80512500Y-83400000D03*
%TD*%
D20*
%TO.C,D14*%
X95000000Y-83650000D03*
X95000000Y-80350000D03*
%TD*%
D21*
%TO.C,D11*%
X102765000Y-123500000D03*
D22*
X100225000Y-123500000D03*
%TD*%
D15*
%TO.C,R13*%
X80287500Y-107500000D03*
X82112500Y-107500000D03*
%TD*%
D23*
%TO.C,R21*%
X78500000Y-91912500D03*
X78500000Y-90087500D03*
%TD*%
D16*
%TO.C,C1*%
X80300000Y-63150000D03*
X80300000Y-61250000D03*
%TD*%
%TO.C,C2*%
X80300000Y-67750000D03*
X80300000Y-65850000D03*
%TD*%
D21*
%TO.C,D10*%
X102765000Y-116030000D03*
D22*
X100225000Y-116030000D03*
%TD*%
D16*
%TO.C,C10*%
X93500000Y-90450000D03*
X93500000Y-88550000D03*
%TD*%
D21*
%TO.C,D9*%
X102765000Y-108560000D03*
D22*
X100225000Y-108560000D03*
%TD*%
D19*
%TO.C,R12*%
X86000000Y-122462500D03*
X86000000Y-119537500D03*
%TD*%
D15*
%TO.C,R9*%
X92687500Y-113400000D03*
X94512500Y-113400000D03*
%TD*%
D23*
%TO.C,R3*%
X76600000Y-67312500D03*
X76600000Y-65487500D03*
%TD*%
D24*
%TO.C,C7*%
X78650000Y-85800000D03*
X80550000Y-85800000D03*
%TD*%
%TO.C,C6*%
X80250000Y-112300000D03*
X82150000Y-112300000D03*
%TD*%
D20*
%TO.C,D12*%
X95000000Y-73650000D03*
X95000000Y-70350000D03*
%TD*%
D23*
%TO.C,R19*%
X81500000Y-97412500D03*
X81500000Y-95587500D03*
%TD*%
D25*
%TO.C,U1*%
X90475000Y-111810000D03*
X90475000Y-110540000D03*
X90475000Y-109270000D03*
X90475000Y-108000000D03*
X90475000Y-106730000D03*
X90475000Y-105460000D03*
X90475000Y-104190000D03*
X85525000Y-104190000D03*
X85525000Y-105460000D03*
X85525000Y-106730000D03*
X85525000Y-108000000D03*
X85525000Y-109270000D03*
X85525000Y-110540000D03*
X85525000Y-111810000D03*
%TD*%
D26*
%TO.C,J1*%
X85000000Y-132000000D03*
X87500000Y-132000000D03*
X89500000Y-132000000D03*
X92000000Y-132000000D03*
D27*
X82100000Y-135700000D03*
X94900000Y-135700000D03*
%TD*%
D23*
%TO.C,R26*%
X103200000Y-80712500D03*
X103200000Y-78887500D03*
%TD*%
D15*
%TO.C,R6*%
X69587500Y-75800000D03*
X71412500Y-75800000D03*
%TD*%
D21*
%TO.C,D2*%
X70500000Y-63500000D03*
D22*
X73040000Y-63500000D03*
%TD*%
D23*
%TO.C,R25*%
X98000000Y-76912500D03*
X98000000Y-75087500D03*
%TD*%
D19*
%TO.C,R7*%
X90500000Y-127762500D03*
X90500000Y-124837500D03*
%TD*%
D23*
%TO.C,R20*%
X94000000Y-95412500D03*
X94000000Y-93587500D03*
%TD*%
D28*
%TO.C,D6*%
X80062500Y-103050000D03*
X80062500Y-104950000D03*
X81937500Y-104000000D03*
%TD*%
D29*
%TO.C,D8*%
X71350000Y-89500000D03*
X74650000Y-89500000D03*
%TD*%
D18*
%TO.C,D1*%
X97600000Y-64400000D03*
X97600000Y-60400000D03*
%TD*%
D15*
%TO.C,R14*%
X80287500Y-109900000D03*
X82112500Y-109900000D03*
%TD*%
D23*
%TO.C,R24*%
X96600000Y-122412500D03*
X96600000Y-120587500D03*
%TD*%
D30*
%TO.C,D7*%
X74050000Y-80437500D03*
X75950000Y-80437500D03*
X75000000Y-78562500D03*
%TD*%
D24*
%TO.C,C4*%
X73950000Y-73400000D03*
X75850000Y-73400000D03*
%TD*%
D19*
%TO.C,R11*%
X86000000Y-127762500D03*
X86000000Y-124837500D03*
%TD*%
D23*
%TO.C,R18*%
X81500000Y-92912500D03*
X81500000Y-91087500D03*
%TD*%
D24*
%TO.C,C5*%
X87650000Y-117400000D03*
X89550000Y-117400000D03*
%TD*%
D23*
%TO.C,R22*%
X96600000Y-107412500D03*
X96600000Y-105587500D03*
%TD*%
D20*
%TO.C,D13*%
X95000000Y-78650000D03*
X95000000Y-75350000D03*
%TD*%
D19*
%TO.C,R15*%
X83000000Y-120962500D03*
X83000000Y-118037500D03*
%TD*%
D16*
%TO.C,C11*%
X78500000Y-96450000D03*
X78500000Y-94550000D03*
%TD*%
D23*
%TO.C,R23*%
X96600000Y-114912500D03*
X96600000Y-113087500D03*
%TD*%
D21*
%TO.C,D15*%
X100460000Y-85500000D03*
D22*
X103000000Y-85500000D03*
%TD*%
D31*
%TO.C,J2*%
X88180000Y-63380000D03*
D32*
X86160000Y-63380000D03*
D33*
X84930000Y-63380000D03*
D34*
X87180000Y-63380000D03*
D35*
X89200000Y-63380000D03*
D36*
X90430000Y-63380000D03*
D37*
X92000000Y-63300000D03*
X92000000Y-59500000D03*
X83360000Y-63300000D03*
X83360000Y-59500000D03*
%TD*%
D23*
%TO.C,R2*%
X89000000Y-68312500D03*
X89000000Y-66487500D03*
%TD*%
D16*
%TO.C,C8*%
X93600000Y-111450000D03*
X93600000Y-109550000D03*
%TD*%
D23*
%TO.C,R1*%
X86600000Y-68312500D03*
X86600000Y-66487500D03*
%TD*%
D15*
%TO.C,R16*%
X78687500Y-81000000D03*
X80512500Y-81000000D03*
%TD*%
D38*
%TO.C,D4*%
X79300000Y-131800000D03*
X75300000Y-131800000D03*
%TD*%
D15*
%TO.C,R5*%
X69587500Y-73400000D03*
X71412500Y-73400000D03*
%TD*%
D17*
%TO.C,U2*%
X85525000Y-75190000D03*
X85525000Y-76460000D03*
X85525000Y-77730000D03*
X85525000Y-79000000D03*
X85525000Y-80270000D03*
X85525000Y-81540000D03*
X85525000Y-82810000D03*
X90475000Y-82810000D03*
X90475000Y-81540000D03*
X90475000Y-80270000D03*
X90475000Y-79000000D03*
X90475000Y-77730000D03*
X90475000Y-76460000D03*
X90475000Y-75190000D03*
%TD*%
D28*
%TO.C,D5*%
X92562500Y-115550000D03*
X92562500Y-117450000D03*
X94437500Y-116500000D03*
%TD*%
D24*
%TO.C,C3*%
X73950000Y-71000000D03*
X75850000Y-71000000D03*
%TD*%
D39*
%TO.C,SW1*%
X68325000Y-93250000D03*
X76275000Y-93250000D03*
X68325000Y-97750000D03*
X76275000Y-97750000D03*
%TD*%
%LPD*%
M02*
