M48
; DRILL file KiCad 10.0.3 date 2026-10-09T10:27:45
; FORMAT={-:-/ absolute / metric / decimal}
; #@! TF.CreationDate,2026-10-09T10:27:45+02:00
; #@! TF.GenerationSoftware,Kicad,Pcbnew,10.0.3
; #@! TF.FileFunction,Plated,1,2,PTH
FMAT,2
METRIC
; #@! TA.AperFunction,Plated,PTH,ViaDrill
T1C0.300
; #@! TA.AperFunction,Plated,PTH,ComponentDrill
T2C0.600
; #@! TA.AperFunction,Plated,PTH,ComponentDrill
T3C0.900
%
G90
G05
T1
X68.275Y-96.775
X72.275Y-75.175
X73.475Y-79.575
X73.475Y-89.775
X74.675Y-71.775
X75.075Y-70.375
X75.075Y-72.775
X75.275Y-130.575
X76.275Y-96.775
X77.075Y-79.975
X77.475Y-81.975
X77.475Y-91.975
X77.675Y-109.175
X77.875Y-93.775
X78.675Y-88.975
X78.675Y-97.575
X78.875Y-110.375
X79.475Y-102.175
X79.675Y-60.375
X79.675Y-64.975
X80.075Y-78.175
X81.275Y-79.375
X81.275Y-82.775
X81.275Y-85.175
X81.475Y-89.375
X82.075Y-74.175
X82.275Y-108.575
X82.475Y-92.975
X82.675Y-96.575
X82.875Y-109.375
X82.875Y-111.775
X83.275Y-82.175
X83.275Y-92.175
X83.275Y-107.975
X83.875Y-105.575
X84.075Y-107.375
X84.275Y-62.575
X84.275Y-79.175
X84.275Y-80.175
X84.275Y-83.175
X84.275Y-98.175
X84.275Y-109.175
X84.875Y-99.775
X86.075Y-65.775
X86.275Y-103.575
X86.875Y-91.175
X86.875Y-92.175
X87.275Y-62.575
X87.275Y-81.575
X87.675Y-68.375
X87.875Y-67.375
X87.875Y-99.775
X88.075Y-96.975
X88.275Y-62.575
X88.275Y-80.175
X88.275Y-82.575
X88.475Y-65.775
X88.475Y-101.375
X89.275Y-77.775
X89.275Y-81.575
X89.275Y-92.575
X89.675Y-90.775
X89.675Y-101.575
X89.875Y-83.575
X89.875Y-88.575
X90.275Y-114.375
X90.275Y-116.775
X90.875Y-100.375
X91.075Y-62.575
X91.075Y-87.375
X91.675Y-91.575
X91.675Y-97.175
X91.675Y-104.975
X91.675Y-106.375
X91.675Y-108.775
X91.875Y-78.375
X91.875Y-84.575
X91.875Y-114.775
X92.475Y-105.575
X92.875Y-87.775
X92.875Y-114.575
X92.875Y-116.575
X92.875Y-131.375
X93.075Y-78.375
X93.075Y-94.775
X93.075Y-108.775
X93.275Y-91.175
X93.275Y-96.775
X94.275Y-97.975
X94.475Y-89.575
X94.675Y-77.975
X94.675Y-82.575
X94.875Y-84.375
X96.075Y-87.975
X96.275Y-77.375
X96.475Y-60.375
X96.675Y-104.775
X97.075Y-112.375
X97.475Y-74.375
T3
X70.5Y-63.5
X73.04Y-63.5
X100.225Y-108.56
X100.225Y-116.03
X100.225Y-123.5
X100.46Y-85.5
X102.765Y-108.56
X102.765Y-116.03
X102.765Y-123.5
X103.0Y-85.5
T2
X82.1Y-134.85G85X82.1Y-136.55
G05
X83.36Y-59.8G85X83.36Y-59.2
G05
X83.36Y-63.6G85X83.36Y-63.0
G05
X92.0Y-59.8G85X92.0Y-59.2
G05
X92.0Y-63.6G85X92.0Y-63.0
G05
X94.9Y-134.85G85X94.9Y-136.55
G05
M30
